<svg xmlns="http://www.w3.org/2000/svg" viewBox="0 0 599.58 304.79"><defs><style>.cls-1{fill:#6ebdff;}.cls-2{fill:#1977cc;}.cls-3{fill:#a2dfff;}.cls-4{fill:#fff;}</style></defs><title>airplain</title><g id="Warstwa_2" data-name="Warstwa 2"><g id="Warstwa_1-2" data-name="Warstwa 1"><polygon class="cls-1" points="322.64 123.88 447.67 47.98 197.49 52.89 322.64 123.88"/><path class="cls-2" d="M447.59,43.87,197.4,48.78a4.12,4.12,0,0,0-2,7.7l125.16,71a4.12,4.12,0,0,0,4.17-.06l125-75.9a4.12,4.12,0,0,0-2.22-7.64Zm-125,75.24-110-62.39L432.46,52.4Z"/><path class="cls-1" d="M47.27,93,4.12,101l94.46,87.89,98.6-43-93.82-45.27A91.06,91.06,0,0,0,47.27,93Z"/><path class="cls-2" d="M199,142.09,105.15,96.83A94.55,94.55,0,0,0,46.52,89l-43.15,8A4.12,4.12,0,0,0,1.31,104l94.46,87.89a4.12,4.12,0,0,0,4.45.76l98.6-43a4.12,4.12,0,0,0,.14-7.48ZM99.4,184,12.92,103.53,48,97.05a86.37,86.37,0,0,1,53.55,7.2l85.74,41.37Z"/><path class="cls-3" d="M593.94,29.14c-10.75-24.63-52.14-33.8-95.17-15L172.39,156.62,94.18,190.77l-39.85,17.4L68.16,230.9s69.25-.23,99.13,1.69c24.68,1.58,52.58-3.24,79.65-15.06L557.35,82c18.72-8.17,44.76-34.15,36.59-52.86Z"/><path class="cls-2" d="M559.17,1.29c-19-3.35-41-.14-62.06,9.06l1.65,3.77-1.65-3.77L52.68,204.4a4.12,4.12,0,0,0-1.87,5.91L64.64,233a4.12,4.12,0,0,0,3.52,2h0c.69,0,69.45-.2,98.85,1.68q4.8.31,9.68.31c23.55,0,48.2-5.37,71.88-15.7L559,85.77c10.51-4.59,22-13.67,30-23.69,9.93-12.5,13-24.79,8.76-34.59C591.89,14.15,577.84,4.6,559.17,1.29ZM582.5,57c-7.07,8.89-17.59,17.24-26.8,21.26L245.29,213.75c-25.38,11.08-53,16.31-77.74,14.72-24.35-1.56-75.22-1.7-93.06-1.7h-4L60.29,210.06,500.41,17.9h0c19.59-8.55,40-11.57,57.32-8.5,15.9,2.82,27.72,10.61,32.43,21.38C594.22,40.07,587.1,51.17,582.5,57Z"/><path class="cls-1" d="M473.71,93l-139,60.68a19.69,19.69,0,0,0-10,9.72l-24.94,132.4a3.37,3.37,0,0,0,5.42,3.82l174.11-198C484.14,97.76,479.25,90.24,473.71,93Z"/><path class="cls-2" d="M472,89.31,333.07,150a23.79,23.79,0,0,0-12,11.76,4.12,4.12,0,0,0-.31,1l-24.86,132a7.38,7.38,0,0,0,2.71,8.72,7.39,7.39,0,0,0,9.57-.8l.2-.21L482.23,104.63A9.31,9.31,0,0,0,472,89.31ZM305.23,299.66h0ZM476.73,98.5a4.1,4.1,0,0,0-.49.47l-172,195.58,24.45-129.8a15.56,15.56,0,0,1,7.67-7.25l139-60.68.21-.1a1.07,1.07,0,0,1,1.16,1.78Z"/><polygon class="cls-1" points="94.28 258.59 140.76 238.3 199.81 188.59 105.61 229.72 94.28 258.59"/><path class="cls-2" d="M198.16,184.82,104,225.95a4.12,4.12,0,0,0-2.19,2.27L90.45,257.09a4.12,4.12,0,0,0,5.48,5.28l46.47-20.29a4.12,4.12,0,0,0,1-.62l59.05-49.71a4.12,4.12,0,0,0-4.3-6.92Zm-59.6,49.95-36.82,16.07,7.07-18,66.62-29.09Z"/><path class="cls-2" d="M462.8,61.85a4.12,4.12,0,1,0-7.55,3.29l4.11,9.42a4.12,4.12,0,1,0,7.55-3.29Z"/><path class="cls-2" d="M484.65,52.31a4.12,4.12,0,1,0-7.55,3.3L481.22,65a4.12,4.12,0,1,0,7.55-3.3Z"/><path class="cls-2" d="M419.1,80.93a4.12,4.12,0,1,0-7.55,3.3l4.11,9.42a4.12,4.12,0,1,0,7.55-3.3Z"/><path class="cls-2" d="M440.95,71.39a4.12,4.12,0,1,0-7.55,3.3l4.11,9.42a4.12,4.12,0,1,0,7.55-3.3Z"/><path class="cls-2" d="M375.39,100a4.12,4.12,0,1,0-7.55,3.3l4.11,9.42a4.12,4.12,0,1,0,7.55-3.3Z"/><path class="cls-2" d="M397.25,90.47a4.12,4.12,0,1,0-7.55,3.3l4.11,9.42a4.12,4.12,0,1,0,7.55-3.3Z"/><path class="cls-2" d="M331.69,119.09a4.12,4.12,0,1,0-7.55,3.3l4.11,9.42a4.12,4.12,0,1,0,7.55-3.3Z"/><path class="cls-2" d="M353.54,109.55a4.12,4.12,0,1,0-7.55,3.3l4.11,9.42a4.12,4.12,0,1,0,7.55-3.3Z"/><path class="cls-2" d="M288,138.17a4.12,4.12,0,1,0-7.55,3.3l4.11,9.42a4.12,4.12,0,1,0,7.55-3.3Z"/><path class="cls-2" d="M309.84,128.63a4.12,4.12,0,1,0-7.55,3.3l4.11,9.42a4.12,4.12,0,1,0,7.55-3.3Z"/><path class="cls-2" d="M244.29,157.25a4.12,4.12,0,0,0-7.55,3.3l4.11,9.42a4.12,4.12,0,1,0,7.55-3.3Z"/><path class="cls-2" d="M266.14,147.71a4.12,4.12,0,1,0-7.55,3.3l4.11,9.42a4.12,4.12,0,0,0,7.55-3.3Z"/><path class="cls-4" d="M556.61,12.52c-12.72-2.25-27.48-.1-41.57,6L271.38,124.95a4.12,4.12,0,1,0,3.3,7.55L518.34,26.11C531,20.6,544,18.66,555.18,20.63c10,1.77,17.35,6.58,20.25,13.21l7.55-3.3C579,21.34,569.34,14.77,556.61,12.52Z"/><path class="cls-4" d="M571.73,9.11l-41.34,18h0a25.7,25.7,0,0,0,33.84,13.27l29.06-12.69C589.22,19.54,581.65,13.16,571.73,9.11Z"/><path class="cls-2" d="M573.28,5.3a4.12,4.12,0,0,0-3.2,0l-41.34,18a4.12,4.12,0,0,0-2.13,5.42,29.77,29.77,0,0,0,39.26,15.4l29.06-12.69a4.12,4.12,0,0,0,2-5.6C592.52,16.94,584.33,9.81,573.28,5.3Zm-10.7,31.36a21.6,21.6,0,0,1-26.41-7.53L571.74,13.6c6.76,3,12.07,7.19,15.62,12.24Z"/></g></g></svg>