<svg xmlns="http://www.w3.org/2000/svg" viewBox="0 0 310.84 296.74"><defs><style>.cls-1{fill:#a2dfff;}.cls-2{fill:#1977cc;}.cls-3{fill:#6ebdff;}</style></defs><title>paper_airplane</title><g id="Warstwa_2" data-name="Warstwa 2"><g id="Warstwa_1-2" data-name="Warstwa 1"><polygon class="cls-1" points="88.44 173.42 307.43 3.41 3.41 144.99 88.44 173.42"/><path class="cls-2" d="M306,.32,2,141.9a3.41,3.41,0,0,0,.36,6.32l85,28.43a3.41,3.41,0,0,0,3.17-.54l219-170A3.41,3.41,0,0,0,306,.32ZM87.79,169.61,12.6,144.47,281.43,19.28Z"/><polygon class="cls-3" points="130.32 293.33 307.43 3.41 88.44 173.42 130.32 293.33"/><path class="cls-2" d="M309.7.87a3.41,3.41,0,0,0-4.36-.15l-219,170a3.41,3.41,0,0,0-1.13,3.82L127.1,294.46a3.41,3.41,0,0,0,2.86,2.27l.36,0a3.41,3.41,0,0,0,2.91-1.63L310.34,5.19A3.41,3.41,0,0,0,309.7.87ZM131.16,285.41l-38.7-110.8L294.82,17.52Z"/><polygon class="cls-3" points="130.32 293.33 307.43 3.41 154.16 212.22 130.32 293.33"/><path class="cls-2" d="M309.33.58a3.41,3.41,0,0,0-4.65.81L151.41,210.2a3.41,3.41,0,0,0-.52,1.06L127,292.37a3.41,3.41,0,0,0,6.18,2.74L310.34,5.19A3.41,3.41,0,0,0,309.33.58ZM140.87,269.52l16.39-55.77L262.63,70.2Z"/><polygon class="cls-1" points="238.22 283.58 307.43 3.41 154.16 212.22 238.22 283.58"/><path class="cls-2" d="M308.87.32a3.41,3.41,0,0,0-4.19,1.07L151.41,210.2a3.41,3.41,0,0,0,.54,4.62L236,286.18a3.41,3.41,0,0,0,5.52-1.78L310.74,4.23A3.41,3.41,0,0,0,308.87.32Zm-72.64,277.1-77.44-65.75L300,19.31Z"/></g></g></svg>