<svg xmlns="http://www.w3.org/2000/svg" viewBox="0 0 251.83 407.37"><defs><style>.cls-1{fill:#c5edf9;}.cls-2{fill:#1977cc;}.cls-3{fill:#fff;}.cls-4{fill:#6ebdff;}.cls-5{fill:#a2dfff;}</style></defs><title>Rocket</title><g id="Warstwa_2" data-name="Warstwa 2"><g id="Warstwa_1-2" data-name="Warstwa 1"><path class="cls-1" d="M85.79,307.45C82,316,80,326.1,80,337.44c0,14.94,7.54,31,21.81,46.37a134.5,134.5,0,0,0,21.53,18.79,4.28,4.28,0,0,0,4.7,0,134.49,134.49,0,0,0,21.53-18.79c14.27-15.4,21.81-31.43,21.81-46.37,0-11.34-2-21.48-5.81-30Z"/><path class="cls-2" d="M163.88,303.73a4.07,4.07,0,0,0-2,5.39c3.62,8,5.46,17.57,5.46,28.32,0,13.89-7.17,29-20.73,43.6a131.37,131.37,0,0,1-20.8,18.17.2.2,0,0,1-.1,0h-.08A131.36,131.36,0,0,1,104.77,381C91.22,366.4,84,351.33,84,337.44c0-10.75,1.84-20.27,5.46-28.31a4.07,4.07,0,0,0-7.43-3.35c-4.1,9.1-6.18,19.75-6.18,31.66,0,16,7.92,33,22.9,49.14A137.94,137.94,0,0,0,121.07,406a8.36,8.36,0,0,0,9.22,0,137.94,137.94,0,0,0,22.25-19.4c15-16.16,22.9-33.15,22.9-49.14,0-11.91-2.08-22.56-6.17-31.66A4.07,4.07,0,0,0,163.88,303.73Z"/><path class="cls-3" d="M106.13,307.45c-3.22,4.79-5.24,11.3-5.24,19.68,0,18.79,21.52,33.37,22.44,34a4.28,4.28,0,0,0,4.7,0c.91-.61,22.43-15.19,22.43-34,0-8.38-2-14.89-5.24-19.68Z"/><path class="cls-2" d="M142.95,304.06a4.07,4.07,0,0,0-1.11,5.65c3,4.5,4.55,10.35,4.55,17.41,0,16.59-20.42,30.46-20.62,30.6a.64.64,0,0,1-.17,0c-.21-.14-20.63-14-20.63-30.6,0-7.06,1.53-12.91,4.55-17.41a4.07,4.07,0,1,0-6.76-4.55c-3.94,5.86-5.94,13.25-5.94,22,0,8.87,4,17.8,11.93,26.55a72.8,72.8,0,0,0,12.32,10.83,8.36,8.36,0,0,0,9.23,0,72.9,72.9,0,0,0,12.31-10.83c7.91-8.75,11.93-17.68,11.93-26.55,0-8.7-2-16.09-5.93-21.95A4.07,4.07,0,0,0,142.95,304.06Z"/><path class="cls-4" d="M5.56,241.15C-3.71,320,33.32,340.33,33.32,340.33h.38S48.52,308,64.26,294.06l-18-112.21C31.4,187.28,9.76,205.39,5.56,241.15Z"/><path class="cls-2" d="M61.56,291C48.67,302.4,36.7,325,32,334.38a57.52,57.52,0,0,1-12.82-16.63C6.66,294.06,7.06,263.28,9.6,241.63c3.81-32.41,22.87-50.4,38-56a4.07,4.07,0,1,0-2.8-7.65c-5.49,2-16.18,7.23-26.11,19.55C9.29,209.31,3.49,223.81,1.51,240.68-.65,259-.49,275.84,2,290.59a101.29,101.29,0,0,0,10.41,31.67c8.57,15.81,18.55,21.41,19,21.64a4.08,4.08,0,0,0,2,.5h.42A4.08,4.08,0,0,0,37.4,342c.14-.32,14.65-31.74,29.56-44.91a4.07,4.07,0,1,0-5.4-6.11Z"/><path class="cls-4" d="M205.58,181.84l-18,112.21c15.74,13.91,30.56,46.27,30.56,46.27h.38s37-20.32,27.76-99.17C242.07,205.39,220.43,187.28,205.58,181.84Z"/><path class="cls-2" d="M207,178a4.07,4.07,0,1,0-2.8,7.65c15.17,5.56,34.24,23.55,38,56,2.54,21.65,2.94,52.43-9.61,76.12a57.55,57.55,0,0,1-12.82,16.63c-1.66-3.35-4.26-8.38-7.51-14-7.75-13.42-15.16-23.3-22-29.37a4.07,4.07,0,1,0-5.4,6.11c14.9,13.17,29.41,44.6,29.56,44.91a4.08,4.08,0,0,0,3.67,2.38h.42a4.08,4.08,0,0,0,2-.5c.42-.23,10.41-5.84,19-21.64a101.3,101.3,0,0,0,10.41-31.67c2.46-14.75,2.62-31.54.46-49.91C246.08,204.6,224.32,184.37,207,178Z"/><path class="cls-5" d="M125.67,4.07a22.65,22.65,0,0,0-16.09,6.71c-2.52,2.54-61.67,63.11-61.67,140.14,0,13.32,1.72,29.28,5.26,48.81,2.9,16,7.05,76.56,12.34,96.76a22.65,22.65,0,0,0,21.91,16.92h76.49a22.65,22.65,0,0,0,21.91-16.92c5.29-20.2,9.44-80.77,12.34-96.76,3.54-19.53,5.26-35.5,5.26-48.81,0-77-59.16-137.6-61.67-140.14A22.65,22.65,0,0,0,125.67,4.07Z"/><path class="cls-2" d="M125.67,0a26.9,26.9,0,0,0-19,7.91c-2.57,2.59-62.86,64.32-62.86,143,0,13.56,1.74,29.77,5.33,49.54,1.09,6,2.37,18.6,3.86,33.19,2.45,24,5.22,51.16,8.55,63.88a26.73,26.73,0,0,0,25.85,20h76.49a26.73,26.73,0,0,0,25.85-20c3.33-12.72,6.1-39.89,8.55-63.87,1.49-14.59,2.77-27.18,3.86-33.19,3.59-19.77,5.33-36,5.33-49.54,0-78.7-60.29-140.42-62.85-143A26.9,26.9,0,0,0,125.67,0Zm68.49,199c-1.15,6.32-2.45,19.06-4,33.82-2.3,22.51-5.15,50.53-8.32,62.64a18.58,18.58,0,0,1-18,13.87H87.42a18.58,18.58,0,0,1-18-13.87c-3.17-12.11-6-40.13-8.32-62.64-1.5-14.75-2.8-27.49-4-33.82-3.5-19.29-5.2-35-5.2-48.09,0-75.37,58-134.78,60.49-137.27a18.58,18.58,0,0,1,26.39,0c2.47,2.49,60.49,61.89,60.49,137.27C199.36,164,197.66,179.71,194.16,199Z"/><path class="cls-1" d="M100,291.72a13.93,13.93,0,0,1-13.47-10.4c-2.14-8.18-4.11-25.53-5.92-43.07a4.07,4.07,0,0,0-8.11.84c1.72,16.64,3.75,35.16,6.14,44.3A22.08,22.08,0,0,0,100,299.87a4.07,4.07,0,1,0,0-8.15Z"/><path class="cls-4" d="M125.67,4.07a22.65,22.65,0,0,0-16.09,6.71C108,12.41,82.92,38,65.25,76.62H186.09C168.42,38,143.38,12.41,141.76,10.78A22.65,22.65,0,0,0,125.67,4.07Z"/><path class="cls-2" d="M144.65,7.91a26.73,26.73,0,0,0-38,0c-1.1,1.11-27.06,27.55-45.14,67a4.07,4.07,0,0,0,3.7,5.77H186.09a4.07,4.07,0,0,0,3.7-5.77C171.72,35.47,145.75,9,144.65,7.91Zm-73,64.63c17.24-34.93,39.77-57.89,40.77-58.9a18.58,18.58,0,0,1,26.39,0c1,1,23.54,24,40.77,58.9Z"/><path class="cls-4" d="M125.67,127.79a47.14,47.14,0,1,0,47.14,47.14A47.19,47.19,0,0,0,125.67,127.79Z"/><path class="cls-2" d="M125.67,123.72a51.21,51.21,0,1,0,51.21,51.21A51.27,51.27,0,0,0,125.67,123.72Zm0,94.28a43.06,43.06,0,1,1,43.07-43.06A43.11,43.11,0,0,1,125.67,218Z"/><path class="cls-3" d="M125.67,143.79a31.15,31.15,0,1,0,31.15,31.15A31.18,31.18,0,0,0,125.67,143.79Z"/><path class="cls-2" d="M125.67,139.71a35.22,35.22,0,1,0,35.22,35.22A35.26,35.26,0,0,0,125.67,139.71Zm0,62.29a27.07,27.07,0,1,1,27.07-27.07A27.1,27.1,0,0,1,125.67,202Z"/><path class="cls-1" d="M125.67,152.28a4.07,4.07,0,0,0,0,8.15,14.52,14.52,0,0,1,14.5,14.5,4.07,4.07,0,0,0,8.15,0A22.68,22.68,0,0,0,125.67,152.28Z"/><path class="cls-3" d="M135.27,33.44a4.07,4.07,0,0,0,0,5.76c2,2,49.26,50.41,49.26,111.75a4.07,4.07,0,1,0,8.15,0c0-64.66-49.52-115.36-51.63-117.49A4.07,4.07,0,0,0,135.27,33.44Z"/></g></g></svg>